<svg width="800" height="800" viewBox="0 0 800 800" fill="none" xmlns="http://www.w3.org/2000/svg">
<path d="M125 487.5C125 372.5 182.5 252.5 250 252.5C287.5 252.5 317.5 275 365 342.5C320 412.5 292.5 455 292.5 455C232.5 550 212.5 570 180 570C147.5 572.5 125 542.5 125 487.5ZM517.5 445L475 375C465 357.5 452.5 340 442.5 325C480 267.5 510 237.5 547.5 237.5C622.5 237.5 682.5 350 682.5 490C682.5 542.5 665 572.5 630 572.5C595 572.5 582.5 550 517.5 445ZM410 275C355 202.5 307.5 175 252.5 175C137.5 175 50 327.5 50 487.5C50 587.5 97.5 650 177.5 650C235 650 275 622.5 350 492.5C350 492.5 380 437.5 402.5 400C410 412.5 417.5 425 425 440L460 500C527.5 615 565 652.5 632.5 652.5C710 652.5 752.5 587.5 752.5 485C750 315 660 175 552.5 175C495 175 450 220 410 275Z" fill="white" style="fill:white;fill:white;fill-opacity:1;"/>
</svg>
