<svg width="800" height="800" viewBox="0 0 800 800" fill="none" xmlns="http://www.w3.org/2000/svg">
<g clip-path="url(#clip0_235_1629)">
<path fill-rule="evenodd" clip-rule="evenodd" d="M442.297 539.461C453.323 556.403 471.247 567.895 491.319 571H570.793C633.755 571 684.795 519.96 684.795 457.001V343C684.795 280.04 633.755 229 570.793 229H228.795C165.834 229 114.794 280.04 114.794 343V457.001C114.794 519.96 165.834 571 228.795 571H308.5C328.058 567.973 345.579 556.985 356.663 540.754L360.521 531.827C369.889 510.155 395.052 500.179 416.722 509.546C426.722 513.869 434.698 521.848 439.014 531.851L442.297 539.461ZM627.794 457.001C627.794 488.479 602.274 513.999 570.793 513.999H497.369C495.31 513.277 493.45 512.118 491.945 510.647L491.347 509.266C481.275 485.927 462.673 467.312 439.339 457.227C388.772 435.366 330.058 458.643 308.199 509.211L307.377 511.112C305.966 512.364 304.286 513.356 302.452 513.999H228.795C197.314 513.999 171.794 488.479 171.794 457.001V343C171.794 311.52 197.314 286 228.795 286H570.793C602.274 286 627.794 311.52 627.794 343V457.001Z" fill="white" style="fill:white;fill:white;fill-opacity:1;"/>
</g>
<defs>
<clipPath id="clip0_235_1629">
<rect width="615.6" height="342" fill="white" style="fill:white;fill:white;fill-opacity:1;" transform="translate(92 229)"/>
</clipPath>
</defs>
</svg>
