<svg width="596" height="596" viewBox="0 0 596 596" fill="none" xmlns="http://www.w3.org/2000/svg">
<path d="M512.5 0.166671H83.5C61.3986 0.166671 40.2025 8.94641 24.5744 24.5744C8.94642 40.2025 0.166679 61.3986 0.166679 83.5V379.167C0.166679 401.268 8.94642 422.464 24.5744 438.092C40.2025 453.72 61.3986 462.5 83.5 462.5H180.5L168.167 562.5H131.333C126.913 562.5 122.674 564.256 119.548 567.382C116.423 570.507 114.667 574.746 114.667 579.167C114.667 583.587 116.423 587.826 119.548 590.952C122.674 594.077 126.913 595.833 131.333 595.833H465C469.42 595.833 473.66 594.077 476.785 590.952C479.911 587.826 481.667 583.587 481.667 579.167C481.667 574.746 479.911 570.507 476.785 567.382C473.66 564.256 469.42 562.5 465 562.5H428L415.667 462.5H512.667C534.768 462.5 555.964 453.72 571.592 438.092C587.22 422.464 596 401.268 596 379.167V83.5C596 72.5425 593.839 61.6925 589.641 51.5712C585.442 41.4498 579.289 32.2558 571.533 24.5154C563.777 16.775 554.571 10.6402 544.441 6.46214C534.312 2.28407 523.457 0.144756 512.5 0.166671ZM201.5 562.5L214.167 462.5H381.833L394.167 562.5H201.5ZM562.5 379.167C562.5 392.428 557.232 405.145 547.855 414.522C538.479 423.899 525.761 429.167 512.5 429.167H83.5C70.2392 429.167 57.5215 423.899 48.1447 414.522C38.7678 405.145 33.5 392.428 33.5 379.167V362.5H562.5V379.167ZM562.5 329.167H33.5V83.5C33.5 70.2392 38.7678 57.5215 48.1447 48.1447C57.5215 38.7678 70.2392 33.5 83.5 33.5H512.5C525.761 33.5 538.479 38.7678 547.855 48.1447C557.232 57.5215 562.5 70.2392 562.5 83.5V329.167Z" fill="white" style="fill:white;fill:white;fill-opacity:1;"/>
</svg>
