<svg width="800" height="800" viewBox="0 0 800 800" fill="none" xmlns="http://www.w3.org/2000/svg">
<path d="M247.75 490.247C247.75 503.362 237.117 513.996 224 513.996C210.883 513.996 200.25 503.362 200.25 490.247C200.25 477.131 210.883 466.498 224 466.498C237.117 466.498 247.75 477.131 247.75 490.247Z" fill="white" style="fill:white;fill:white;fill-opacity:1;"/>
<path d="M224 371.498C237.117 371.498 247.75 360.865 247.75 347.748C247.75 334.631 237.117 323.998 224 323.998C210.883 323.998 200.25 334.631 200.25 347.748C200.25 360.865 210.883 371.498 224 371.498Z" fill="white" style="fill:white;fill:white;fill-opacity:1;"/>
<path d="M580.246 490.247C580.246 503.362 569.613 513.996 556.497 513.996C543.379 513.996 532.745 503.362 532.745 490.247C532.745 477.131 543.379 466.498 556.497 466.498C569.613 466.498 580.246 477.131 580.246 490.247Z" fill="white" style="fill:white;fill:white;fill-opacity:1;"/>
<path d="M556.497 371.498C569.613 371.498 580.246 360.865 580.246 347.748C580.246 334.631 569.613 323.998 556.497 323.998C543.379 323.998 532.745 334.631 532.745 347.748C532.745 360.865 543.379 371.498 556.497 371.498Z" fill="white" style="fill:white;fill:white;fill-opacity:1;"/>
<path fill-rule="evenodd" clip-rule="evenodd" d="M319 276.5C319 250.266 340.267 229 366.5 229H414C440.231 229 461.498 250.266 461.498 276.5H532.748C585.217 276.5 627.75 319.033 627.75 371.5C640.866 371.5 651.499 382.133 651.499 395.25V442.749C651.499 455.868 640.866 466.501 627.75 466.501C627.75 518.968 585.217 561.501 532.748 561.501H466.52C449.793 558.913 434.856 549.337 425.668 535.218L422.932 528.877C419.335 520.541 412.69 513.891 404.356 510.288C386.299 502.482 365.329 510.796 357.522 528.857L354.307 536.293C345.07 549.822 330.47 558.979 314.171 561.501H247.75C195.283 561.501 152.75 518.968 152.75 466.501C139.633 466.501 129 455.868 129 442.749V395.25C129 382.133 139.633 371.5 152.75 371.5C152.75 319.033 195.283 276.5 247.75 276.5H319ZM603.998 466.501V371.5C603.998 332.15 572.101 300.25 532.748 300.25H247.75C208.4 300.25 176.5 332.15 176.5 371.5V466.501C176.5 505.851 208.4 537.752 247.75 537.752H312.113C320.651 536.039 328.299 531.297 333.528 524.508L335.721 519.432C348.732 489.332 383.68 475.479 413.781 488.489C427.669 494.494 438.744 505.572 444.737 519.466L446.57 523.713C451.8 530.92 459.705 535.974 468.58 537.752H532.748C572.101 537.752 603.998 505.851 603.998 466.501ZM437.749 276.5H342.75C342.75 263.383 353.383 252.75 366.5 252.75H414C427.116 252.75 437.749 263.383 437.749 276.5Z" fill="white" style="fill:white;fill:white;fill-opacity:1;"/>
</svg>
